<?xml version="1.0" standalone="no"?><!DOCTYPE svg PUBLIC "-//W3C//DTD SVG 1.1//EN" "http://www.w3.org/Graphics/SVG/1.1/DTD/svg11.dtd"><svg t="1751465327644" class="icon" viewBox="0 0 1024 1024" version="1.1" xmlns="http://www.w3.org/2000/svg" p-id="4239" xmlns:xlink="http://www.w3.org/1999/xlink" width="200" height="200"><path d="M729.225846 146.313846l49.230769 5.907692c100.430769 13.784615 181.169231 90.584615 196.923077 191.015385 19.692308 112.246154 19.692308 224.492308 0 336.738462-17.723077 100.430769-96.492308 177.230769-196.923077 191.015384l-49.230769 5.907693c-143.753846 19.692308-291.446154 19.692308-435.2 0l-49.230769-5.907693c-100.430769-13.784615-181.169231-90.584615-196.923077-191.015384-19.692308-112.246154-19.692308-224.492308 0-336.738462 17.723077-100.430769 96.492308-177.230769 196.923077-191.015385l49.230769-5.907692c145.723077-17.723077 291.446154-17.723077 435.2 0z m-409.6 47.261539l-19.692308 1.96923-49.230769 5.907693c-78.769231 9.846154-141.784615 70.892308-155.569231 149.661538-17.723077 106.338462-17.723077 214.646154 0 320.984616 13.784615 76.8 72.861538 135.876923 149.661539 149.661538h5.907692l49.230769 5.907692c133.907692 17.723077 269.784615 17.723077 403.692308 1.969231l19.692308-1.969231 49.230769-5.907692c78.769231-9.846154 141.784615-70.892308 155.569231-149.661538 17.723077-106.338462 17.723077-214.646154 0-320.984616-13.784615-76.8-72.861538-135.876923-149.661539-149.661538h-5.907692l-49.230769-5.907693c-133.907692-17.723077-269.784615-17.723077-403.692308-1.96923z m133.907692 175.261538v39.384615h-129.96923l-1.969231 35.446154v1.969231c0 9.846154-1.969231 17.723077-1.969231 25.6h155.569231v39.384615h-161.476923c0 3.938462-1.969231 7.876923-3.938462 11.815385h41.353846v92.553846c0 15.753846 5.907692 21.661538 23.63077 21.661539h33.476923c19.692308 0 25.6-5.907692 25.6-21.661539v-5.907692-41.353846l41.353846 7.876923v17.723077l-1.969231 39.384615c-1.969231 33.476923-15.753846 43.323077-55.138461 43.323077h-59.076923c-35.446154 0-51.2-11.815385-51.2-49.230769v-96.492308c-19.692308 64.984615-63.015385 112.246154-141.784616 159.507692l-27.569231-37.415384c74.830769-41.353846 112.246154-82.707692 129.969231-143.753846h-118.153846v-39.384616h126.030769c1.969231-9.846154 1.969231-17.723077 1.969231-27.56923v-5.907693-27.569231h-108.307692v-39.384615h283.56923z m315.076924 161.476923c-1.969231 21.661538-3.938462 43.323077-5.907693 57.107692v3.938462l13.784616 7.876923c29.538462 15.753846 61.046154 33.476923 90.584615 51.2l-19.692308 37.415385-15.753846-9.846154c-25.6-15.753846-59.076923-35.446154-84.676923-49.230769-19.692308 25.6-57.107692 43.323077-116.184615 61.046153l-15.753846-39.384615c76.8-17.723077 106.338462-39.384615 110.276923-82.707692v-7.876923c0-7.876923 1.969231-19.692308 0-27.569231l43.323077-1.969231z m-163.446154-175.261538v61.046154h37.415384v39.384615h-37.415384v45.292308c9.846154-3.938462 21.661538-5.907692 29.538461-9.846154l3.938462 21.661538 3.938461 17.723077-37.415384 7.876923v102.4c0 31.507692-9.846154 39.384615-47.261539 39.384616h-29.538461l-7.876923-37.415385h25.6c15.753846 0 19.692308-3.938462 19.692307-15.753846v-76.8l-17.723077 5.907692c-7.876923 1.969231-15.753846 5.907692-23.630769 7.876923l-5.907692-37.415384 47.261538-13.784616v-57.107692h-41.353846v-39.384615h41.353846v-61.046154h39.384616z m240.246154 128v122.092307h-39.384616v-86.646153h-118.153846v86.646153h-37.415385v-124.061538h194.953847z m-7.876924-118.153846v96.492307h-179.2v-96.492307h179.2z m-41.353846 31.507692h-98.461538v33.476923h98.461538v-33.476923z" p-id="4240" fill="#ffffff"></path></svg>