<?xml version="1.0" standalone="no"?><!DOCTYPE svg PUBLIC "-//W3C//DTD SVG 1.1//EN" "http://www.w3.org/Graphics/SVG/1.1/DTD/svg11.dtd"><svg t="1751977011853" class="icon" viewBox="0 0 1024 1024" version="1.1" xmlns="http://www.w3.org/2000/svg" p-id="32453" xmlns:xlink="http://www.w3.org/1999/xlink" width="200" height="200"><path d="M822.68918518 263.44865185H201.31081482a186.41351111 186.41351111 0 0 0-186.41351112 186.41351112v124.27567406a186.41351111 186.41351111 0 0 0 186.41351112 186.41351112h621.37837036a186.41351111 186.41351111 0 0 0 186.41351112-186.41351112v-124.27567406a186.41351111 186.41351111 0 0 0-186.41351112-186.41351112zM319.68339437 667.34459259h-3.41758104a31.06891852 31.06891852 0 0 1-26.71926992-23.92306726l-56.54543171-248.55134815a31.06891852 31.06891852 0 1 1 62.13783705-13.67032415L330.55751585 543.06891852l82.33263407-169.01491674a31.06891852 31.06891852 0 1 1 55.61336416 27.3406483l-120.85809305 248.55134814a31.06891852 31.06891852 0 0 1-27.96202666 17.39859437z m201.01590281-25.78720237a31.06891852 31.06891852 0 0 1-31.06891851 25.78720237 17.08790518 17.08790518 0 0 1-5.59240534 0 31.06891852 31.06891852 0 0 1-25.165824-35.72925629l43.80717512-248.55134815a31.06891852 31.06891852 0 0 1 62.13783703 10.5634323z m281.48440179-186.41351111A108.43052563 108.43052563 0 0 1 698.41351111 543.06891852h-36.03994548l-17.39859438 98.4884717a31.06891852 31.06891852 0 0 1-31.0689185 25.78720237 17.08790518 17.08790518 0 0 1-5.59240534 0 31.06891852 31.06891852 0 0 1-25.165824-35.72925629l22.05893214-124.27567408a31.06891852 31.06891852 0 0 1 31.06891853-26.40858074h62.13783703a46.60337778 46.60337778 0 0 0 42.56441837-36.35063466 22.36962133 22.36962133 0 0 0-4.0389594-18.9520403 20.81617541 20.81617541 0 0 0-16.46652683-6.83516207h-62.13783703a31.06891852 31.06891852 0 0 1 0-62.13783704h62.13783703a82.95401245 82.95401245 0 0 1 64.00197216 28.89409422 84.81814755 84.81814755 0 0 1 17.70928356 69.59437748z" fill="#7c3ef9" p-id="32454"></path></svg>